<svg width="582" height="347" viewBox="0 0 582 347" fill="none" xmlns="http://www.w3.org/2000/svg">
<path fill-rule="evenodd" clip-rule="evenodd" d="M0 0V346.999H114.912C138.852 346.999 161.223 342.537 182.026 333.614C202.994 324.526 221.403 312.051 237.253 296.188C250.744 282.686 261.715 267.485 270.168 250.583C271.796 254.014 273.543 257.401 275.408 260.744C290.32 287.082 310.167 308.042 334.949 323.625C359.949 339.208 387.581 347 417.845 347C450.74 347 480.456 337.782 506.992 319.345C533.527 300.689 553.484 276.766 566.861 247.575L484.952 228.48C477.276 240.332 467.627 249.77 456.004 256.793C444.6 263.597 431.88 266.889 417.845 266.67C404.248 266.45 392.077 263.487 381.331 257.781C370.585 251.855 361.704 244.063 354.686 234.406C347.668 224.529 342.624 213.446 339.554 201.155H580.019C583.748 174.817 582.212 149.577 575.414 125.434C568.616 101.291 557.76 79.7814 542.848 60.906C527.935 42.0307 509.733 27.2157 488.241 16.4611C466.969 5.48705 443.503 0 417.845 0C395.257 0 373.984 4.49937 354.028 13.4981C334.071 22.4968 316.527 35.0073 301.395 51.0294C288.751 64.4282 278.393 79.7204 270.321 96.906C261.848 79.784 250.825 64.5015 237.253 51.0584C221.403 35.0304 202.994 22.5549 182.026 13.6321C161.223 4.54403 138.852 0 114.912 0H0ZM483.307 105.351C491.202 115.886 496.355 127.738 498.768 140.907H336.922C339.773 127.519 345.037 115.557 352.712 105.022C360.607 94.2672 370.147 85.8172 381.331 79.6717C392.516 73.3068 404.687 70.1243 417.845 70.1243C431.003 70.1243 443.284 73.3068 454.688 79.6717C466.092 86.0367 475.631 94.5964 483.307 105.351Z" fill="black"/>
</svg>
